Coordinates
version=1
nRows=17
nColumns=24
inDegrees=yes

Units are S.I. units (second, meters, Newtons, ...)
Angles are in degrees.

endheader
time	pelvis_tilt	pelvis_list	pelvis_rotation	pelvis_tx	pelvis_ty	pelvis_tz	hip_flexion_r	hip_adduction_r	hip_rotation_r	knee_angle_r	ankle_angle_r	subtalar_angle_r	mtp_angle_r	hip_flexion_l	hip_adduction_l	hip_rotation_l	knee_angle_l	ankle_angle_l	subtalar_angle_l	mtp_angle_l	lumbar_extension	lumbar_bending	lumbar_rotation
      6.51000000	      4.36707082	     -4.60222876	     -0.61564487	     -0.46630858	      1.05138160	      0.02892645	    -19.56249790	      5.86124786	    -10.33780403	    -12.02664391	      2.76060435	    -10.98812479	      0.00000000	     13.54206646	     -2.68893974	    -10.32278782	      1.21029647	      1.39029893	    -13.69315575	      0.00000000	    -22.09014165	     -0.32163395	      5.37891924
      6.52000000	      4.73922634	     -4.39919678	     -0.72796635	     -0.45117802	      1.05064399	      0.02681277	    -19.74695167	      5.14769086	    -11.30667130	    -13.90092278	      2.26696815	    -10.07983977	      0.00000000	     13.28140939	     -2.46211148	    -10.98363884	     -0.09162869	      0.73269268	    -14.17611053	      0.00000000	    -22.25174690	     -0.40041525	      4.97354930
      6.53000000	      4.97144560	     -4.12605618	     -0.76320724	     -0.43584540	      1.04987918	      0.02447679	    -19.65950693	      4.32614660	    -12.55100181	    -15.98208442	      1.46930972	     -9.29288625	      0.00000000	     13.16530661	     -2.15733994	    -11.36756670	     -1.55025792	     -0.13998802	    -14.89650984	      0.00000000	    -22.22113427	     -0.50551418	      4.37723743
      6.54000000	      5.14333958	     -3.74869052	     -0.72110033	     -0.42039063	      1.04923319	      0.02193499	    -19.40250232	      3.37128743	    -13.92440510	    -18.21527089	      0.18088396	     -8.86112283	      0.00000000	     13.08548765	     -1.72815630	    -11.35232669	     -3.06152728	     -1.23394325	    -16.01791440	      0.00000000	    -22.10910473	     -0.68562408	      3.61079404
      6.55000000	      5.24843582	     -3.26028599	     -0.59453006	     -0.40490042	      1.04875352	      0.01923913	    -18.98040142	      2.31131386	    -15.23012340	    -20.54763742	     -1.83915644	     -9.09823167	      0.00000000	     13.06441336	     -1.15962293	    -10.99795421	     -4.60694701	     -2.31474922	    -17.41281920	      0.00000000	    -21.92242670	     -0.95763762	      2.65115178
      6.56000000	      5.33464566	     -2.64136758	     -0.37145870	     -0.38949294	      1.04851775	      0.01641514	    -18.42739441	      1.12928069	    -16.47045684	    -22.98661815	     -4.53875612	     -9.98719069	      0.00000000	     13.08134224	     -0.43287298	    -10.53382778	     -6.21624072	     -3.17085971	    -18.73317450	      0.00000000	    -21.74014546	     -1.35278514	      1.56959181
      6.57000000	      5.39259526	     -1.92074969	     -0.05048165	     -0.37422147	      1.04850136	      0.01349404	    -17.72733729	     -0.13006050	    -17.54624341	    -25.52732460	     -7.96418292	    -11.45864158	      0.00000000	     13.12392133	      0.42957617	     -9.96125498	     -7.85468762	     -3.45045589	    -19.80516106	      0.00000000	    -21.56095443	     -1.84285704	      0.32573027
      6.58000000	      5.43668717	     -1.14018656	      0.32152069	     -0.35917139	      1.04869046	      0.01057229	    -16.88082189	     -1.41610593	    -18.32128482	    -28.16311502	    -12.04711394	    -13.57816975	      0.00000000	     13.14029024	      1.37585859	     -9.39585088	     -9.45738913	     -3.31671171	    -20.68297561	      0.00000000	    -21.41616142	     -2.40408156	     -0.95303347
      6.59000000	      5.45816911	     -0.33674434	      0.69719134	     -0.34439905	      1.04904968	      0.00775259	    -15.85540802	     -2.67956540	    -18.68349714	    -30.90389553	    -16.65207714	    -16.19666901	      0.00000000	     13.08965752	      2.35537381	     -8.92370531	    -10.93377049	     -2.74373224	    -21.23484678	      0.00000000	    -21.30556152	     -3.01467545	     -2.19696041
      6.60000000	      5.44348741	      0.46573756	      0.99280479	     -0.32994179	      1.04953913	      0.00516823	    -14.60379122	     -3.89371728	    -18.52803229	    -33.76943268	    -21.50745030	    -19.10954590	      0.00000000	     12.93235776	      3.32382292	     -8.61990619	    -12.17590290	     -1.77680864	    -21.39827448	      0.00000000	    -21.21507588	     -3.67653325	     -3.31874654
      6.61000000	      5.39343103	      1.24690522	      1.18159273	     -0.31583186	      1.05012359	      0.00286118	    -13.11228599	     -5.04106288	    -17.93110495	    -36.76000393	    -26.28349073	    -22.08553485	      0.00000000	     12.65429593	      4.24749224	     -8.53163809	    -13.13354367	     -0.60278047	    -21.23391490	      0.00000000	    -21.14733658	     -4.36823888	     -4.27918378
      6.62000000	      5.29848090	      2.00972095	      1.19401170	     -0.30206571	      1.05076759	      0.00091814	    -11.35963851	     -6.11688738	    -16.87550060	    -39.85491639	    -30.67641174	    -24.96934642	      0.00000000	     12.25452753	      5.11928819	     -8.66500537	    -13.76225375	      0.64023420	    -20.85754449	      0.00000000	    -21.08092484	     -5.11269948	     -5.03377088
      6.63000000	      5.20086102	      2.75778535	      1.02940057	     -0.28860492	      1.05149588	     -0.00065718	     -9.42091741	     -7.10232809	    -15.45491669	    -42.97932880	    -34.45315678	    -27.66030446	      0.00000000	     11.72181784	      5.93542362	     -9.07093050	    -14.10495849	      1.96113496	    -20.17749476	      0.00000000	    -21.05156082	     -5.90797971	     -5.61645957
      6.64000000	      5.03242536	      3.43948312	      0.65717728	     -0.27541917	      1.05220739	     -0.00190014	     -7.23883003	     -7.91667894	    -13.65991737	    -46.06098631	    -37.49955114	    -30.16035771	      0.00000000	     11.12278150	      6.68776643	     -9.42830073	    -14.12110940	      2.86903284	    -19.94850914	      0.00000000	    -20.94725699	     -6.69480042	     -5.95606692
      6.65000000	      4.94244804	      4.06587692	      0.16541422	     -0.26243996	      1.05308165	     -0.00290933	     -5.06577068	     -8.53958465	    -11.68006938	    -48.95898076	    -39.72221606	    -32.50537499	      0.00000000	     10.37444164	      7.37272994	     -9.92285399	    -13.95925738	      3.75172504	    -19.61159692	      0.00000000	    -20.94160429	     -7.44831922	     -6.22633321
      6.66000000	      4.82228117	      4.56107078	     -0.42295315	     -0.24963664	      1.05400540	     -0.00376955	     -2.82125606	     -8.87903009	     -9.54905163	    -51.61062276	    -41.00637850	    -34.55054877	      0.00000000	      9.60298247	      7.94433611	    -10.33411002	    -13.63801046	      4.38720766	    -19.49153622	      0.00000000	    -20.87999967	     -8.07457704	     -6.36061263
      6.67000000	      4.77959593	      4.92935864	     -1.01078210	     -0.23696699	      1.05510493	     -0.00461678	     -0.70862129	     -8.94644596	     -7.44028322	    -53.92341330	    -41.36359285	    -36.42068479	      0.00000000	      8.72512602	      8.41405289	    -10.66539578	    -13.23594847	      4.91659904	    -19.48413078	      0.00000000	    -20.89868283	     -8.53954448	     -6.52308485
